# xmcd
#
# Track frame offsets: 
#        150
#        12616
#        23866
#        43101
#        55481
#        68637
#        81312
#        89447
#        99443
#        109426
#        120845
#        134680
#        150999
#        166805
#        184860
#        204341
#
# Disc length: 2870 seconds
#
# Revision: 4
# Processed by: cddbd v1.5.1PL0 Copyright (c) Steve Scherf et al.
# Submitted via: ExactAudioCopy v0.95a5
#
DISCID=d50b3410
DTITLE=Various Artist - Beat At Cinecitta Volume 3
DYEAR=1999
DGENRE=Soundtrack
TTITLE0=Armando Trovaioli - Amurri - Il Profeta
TTITLE1=Berto Pisano - Tema Di Oscar
TTITLE2=Berto Pisano, Jacques Chaurmont, Roman Gary - Kill Them All!
TTITLE3=Armando Trovaioli - L'Arcidiavolo
TTITLE4=Piero Piccioni - Alberto Sordi - Amore Amore Amore
TTITLE5=Piero Piccioni - Playgirl '70 (Party Music 1)
TTITLE6=Stefano Torossi - L'eta'del Malessere (Beat Medio)
TTITLE7=Armando Trovaioli - Alberta Lattuada - Quand'ero Un Bebe'
TTITLE8=Armando Trovaioli - Dove Vai Tutta Nuda (Vittorio Gassman Shak
TTITLE8=e)
TTITLE9=Piero Piccioni - Shawn Robinson - Once And Again
TTITLE10=Piero Piccioni - Playgirl '70 (Party Music 2)
TTITLE11=Armando Trovaioli - Vedo Nudo (Shake)
TTITLE12=MacDonald - Trovaioli - Pes - Let's Find Out
TTITLE13=Fowlkes - Trovaioli - Pes - Crazy
TTITLE14=Roberto Prgadio - Eva La Venere Selvaggia (Shake)
TTITLE15=Piero Piccioni - Shawn Robinson - Right Or Wrong
EXTD=ID3G: 0
EXTT0=
EXTT1=
EXTT2=
EXTT3=
EXTT4=
EXTT5=
EXTT6=
EXTT7=
EXTT8=
EXTT9=
EXTT10=
EXTT11=
EXTT12=
EXTT13=
EXTT14=
EXTT15=
PLAYORDER=
